# xmcd
#
# Track frame offsets:
# 150
# 14237
# 24395
# 35967
# 45565
# 55092
# 64862
# 76627
# 86435
# 98137
# 108645
# 120630
# 134092
# 144187
# 155590
# 166345
# 179430
# 191872
# 202490
# 212355
# 224397
# 235720
# 245857
# 256507
# 266247
# 276477
# 286807
# 296995
# 306695
# 317322
#
# Disc length: 4371 seconds
#
#
# Revision: 2
# Processed by: cddbd v1.5.2PL0 Copyright (c) Steve Scherf et al.
# Submitted via: FreeRIP 2.51 
#
DISCID=d411111e
DTITLE=Wilf Carter - The Dynanite Trail - The Decca Years, 1954-58
DYEAR=1990
DGENRE=Country
TTITLE0=One Golden Curl
TTITLE1=My Mountain High Yodel Song
TTITLE2=I'm Gonna Tear Down The Mailbox
TTITLE3=Maple Leaf Waltz
TTITLE4=There's A Tree On Every Road
TTITLE5=I Bought A Rock For A Rocky Mountain Gal
TTITLE6=Shoo Shoo Sh' La La
TTITLE7=The Sunshine Bird
TTITLE8=Kissin' On The Sly
TTITLE9=The Alpine Milkman
TTITLE10=Dynamite Trail
TTITLE11=Strawberry Roan (1969)
TTITLE12=Ragged But Right
TTITLE13=There's A Padlock On Your Heart
TTITLE14=The Yodelin' Song
TTITLE15=On A Little Two Acre Farm
TTITLE16=Strawbewerry Roan (1956)
TTITLE17=My Little Lady
TTITLE18=Silver Bell Yodel
TTITLE19=Away Out On The Mountain
TTITLE20=The Blind Boy's Prayer
TTITLE21=X's From Down In Texas
TTITLE22=Let A Little Sunshine In Your Heart
TTITLE23=There's A Blue Bird On Your Windowsill
TTITLE24=My French Canadian Girl
TTITLE25=Sick, Sober And Sorry
TTITLE26=A Sinner's Prayer
TTITLE27=My Prairie Rose
TTITLE28=Yodeling Babies To Sleep
TTITLE29=Born To Lose
EXTD=Year: 1990
EXTT0=
EXTT1=
EXTT2=
EXTT3=
EXTT4=
EXTT5=
EXTT6=
EXTT7=
EXTT8=
EXTT9=
EXTT10=
EXTT11=
EXTT12=
EXTT13=
EXTT14=
EXTT15=
EXTT16=
EXTT17=
EXTT18=
EXTT19=
EXTT20=
EXTT21=
EXTT22=
EXTT23=
EXTT24=
EXTT25=
EXTT26=
EXTT27=
EXTT28=
EXTT29=
PLAYORDER=
